<svg width="639" height="163" viewBox="0 0 639 163" fill="none" xmlns="http://www.w3.org/2000/svg">
<path d="M223.863 114V58.7151H202.55V47.5124H258.382V58.7151H237.069V114H223.863ZM267.211 114.911C262.536 114.911 258.832 113.605 256.1 110.994C253.428 108.383 252.092 104.892 252.092 100.52C252.092 95.0556 254.217 90.8356 258.468 87.8604C262.779 84.8851 268.881 83.3975 276.774 83.3975H283.059C283.059 81.2723 282.786 79.6329 282.239 78.4793C281.753 77.3256 280.873 76.5362 279.598 76.1112C278.384 75.6254 276.623 75.3826 274.315 75.3826C271.279 75.3826 268.122 75.7165 264.843 76.3844C261.564 76.9916 258.468 77.8721 255.553 79.0257L254.005 69.3714C257.162 68.2177 260.654 67.3373 264.479 66.7301C268.365 66.0622 272.221 65.7282 276.046 65.7282C280.903 65.7282 284.729 66.305 287.522 67.4587C290.315 68.6124 292.349 70.5554 293.624 73.2878C294.899 75.9594 295.537 79.5722 295.537 84.1261V114H283.605L283.423 108.535H283.332C281.632 110.478 279.294 112.027 276.319 113.18C273.344 114.334 270.308 114.911 267.211 114.911ZM271.765 105.439C273.89 105.439 275.803 105.074 277.503 104.346C279.203 103.617 280.539 102.615 281.511 101.34C282.543 100.004 283.059 98.547 283.059 96.9683V91.5946H278.596C273.678 91.5946 270.004 92.2322 267.576 93.5073C265.147 94.7216 263.932 96.6343 263.932 99.2452C263.932 101.188 264.6 102.706 265.936 103.799C267.333 104.892 269.276 105.439 271.765 105.439ZM302.257 114L316.738 90.2284L302.348 66.639H316.01L325.209 83.6707H325.391L334.59 66.639H348.251L333.952 90.2284L348.434 114H334.772L325.391 96.7861H325.209L315.918 114H302.257Z" fill="#14213D"/>
<path d="M376.598 114.911C372.104 114.911 367.702 114.455 363.391 113.545C359.08 112.573 355.498 111.268 352.644 109.628L355.558 98.4255C357.623 99.4577 359.9 100.399 362.389 101.249C364.879 102.038 367.429 102.676 370.04 103.162C372.651 103.587 375.11 103.799 377.417 103.799C381.425 103.799 384.491 103.101 386.616 101.704C388.741 100.308 389.804 98.2737 389.804 95.6021C389.804 94.1448 389.47 92.9304 388.802 91.9589C388.134 90.9267 387.132 90.0463 385.797 89.3176C384.461 88.5283 382.761 87.7997 380.696 87.1317C378.632 86.4638 376.203 85.7656 373.41 85.0369C370.192 84.1261 367.308 83.0939 364.757 81.9402C362.207 80.7866 360.021 79.4204 358.2 77.8417C356.439 76.263 355.073 74.4414 354.101 72.377C353.19 70.2518 352.735 67.823 352.735 65.0907C352.735 59.1402 355.012 54.5862 359.566 51.4288C364.12 48.2107 370.556 46.6017 378.875 46.6017C383.003 46.6017 387.102 46.9963 391.17 47.7857C395.299 48.5143 398.851 49.5465 401.826 50.8824L398.821 62.0851C395.906 60.6885 392.688 59.6259 389.166 58.8973C385.645 58.1079 382.153 57.7133 378.692 57.7133C374.564 57.7133 371.436 58.3508 369.311 59.6259C367.186 60.8403 366.124 62.6619 366.124 65.0907C366.124 66.5479 366.427 67.7927 367.034 68.8249C367.642 69.7964 368.552 70.6465 369.767 71.3751C371.042 72.1037 372.62 72.802 374.503 73.4699C376.446 74.1378 378.753 74.8665 381.425 75.6558C384.886 76.6273 387.952 77.7203 390.624 78.9346C393.356 80.0883 395.633 81.4545 397.455 83.0332C399.337 84.5512 400.764 86.3424 401.735 88.4068C402.707 90.4713 403.193 92.9001 403.193 95.6932C403.193 101.765 400.855 106.501 396.18 109.901C391.565 113.241 385.038 114.911 376.598 114.911ZM432.264 114.911C426.556 114.911 422.427 113.757 419.877 111.45C417.388 109.142 416.143 105.348 416.143 100.065V76.3844H405.851V66.639H416.143V51.1556H428.712V66.639H444.104V76.3844H428.712V96.9683C428.712 99.8221 429.167 101.826 430.078 102.979C430.989 104.072 432.628 104.619 434.996 104.619C436.271 104.619 437.607 104.497 439.004 104.255C440.461 104.012 441.797 103.678 443.011 103.253L444.013 113.18C441.949 113.787 439.975 114.213 438.093 114.455C436.211 114.759 434.268 114.911 432.264 114.911ZM474.86 114.911C467.088 114.911 461.076 112.786 456.826 108.535C452.636 104.285 450.542 98.213 450.542 90.3195C450.542 82.426 452.636 76.3541 456.826 72.1037C461.076 67.8534 467.088 65.7282 474.86 65.7282C482.632 65.7282 488.612 67.8534 492.802 72.1037C496.992 76.3541 499.087 82.426 499.087 90.3195C499.087 98.213 496.992 104.285 492.802 108.535C488.612 112.786 482.632 114.911 474.86 114.911ZM474.86 105.165C478.746 105.165 481.66 103.921 483.603 101.431C485.607 98.9416 486.609 95.2378 486.609 90.3195C486.609 85.4012 485.607 81.6974 483.603 79.2079C481.66 76.7184 478.746 75.4736 474.86 75.4736C471.034 75.4736 468.089 76.7184 466.025 79.2079C464.021 81.6974 463.019 85.4012 463.019 90.3195C463.019 95.2378 464.021 98.9416 466.025 101.431C468.089 103.921 471.034 105.165 474.86 105.165ZM508.517 114V66.639H520.539L520.63 75.4736H520.903C522.482 73.3485 524.334 71.5876 526.459 70.1911C528.645 68.7338 531.013 67.6409 533.563 66.9122C536.174 66.1229 538.846 65.7282 541.578 65.7282V76.3844C537.814 76.3844 534.383 77.0827 531.286 78.4793C528.19 79.8758 525.731 81.7884 523.909 84.2172C522.088 86.5853 521.177 89.2266 521.177 92.1411V114H508.517ZM549.609 114V66.639H561.267L561.449 72.1948H561.631C563.392 70.0696 565.396 68.4606 567.643 67.3676C569.95 66.2747 572.652 65.7282 575.749 65.7282C578.785 65.7282 581.365 66.2747 583.49 67.3676C585.615 68.4606 587.133 70.0696 588.044 72.1948H588.226C590.109 69.9482 592.234 68.3088 594.602 67.2766C596.97 66.2443 599.733 65.7282 602.89 65.7282C607.93 65.7282 611.573 67.064 613.82 69.7357C616.127 72.4073 617.281 76.6273 617.281 82.3956V114H605.076V85.4923C605.076 82.2135 604.56 79.8151 603.528 78.2971C602.495 76.7791 600.826 76.0201 598.518 76.0201C595.786 76.0201 593.63 76.9613 592.052 78.8436C590.473 80.6651 589.684 83.0939 589.684 86.1299V114H577.388V84.8548C577.388 81.9402 576.811 79.7544 575.658 78.2971C574.565 76.7791 572.925 76.0201 570.739 76.0201C569.1 76.0201 567.612 76.4755 566.276 77.3863C564.941 78.2364 563.878 79.4204 563.089 80.9384C562.299 82.4564 561.905 84.1869 561.905 86.1299V114H549.609Z" fill="#FCA311"/>
<rect y="31" width="66" height="66" fill="#FCA311"/>
<rect x="66" y="97" width="66" height="66" fill="#FFCE7D"/>
<rect x="66" width="97" height="97" fill="#14213D"/>
</svg>
